<svg width="20" height="20" fill="none" xmlns="http://www.w3.org/2000/svg"><path d="M16.655 10.368c-.177-.397-.422-.787-.78-1.239-.9-1.133-1.176-3.66-1.179-3.685a.305.305 0 00-.21-.257.31.31 0 00-.325.087c-1.075 1.204-.623 3.061-.378 3.804.067.203.14.442.192.684.397 1.961-.37 2.849-.55 3.028-.174.048-.293.024-.403-.094-.38-.415-.505-1.776-.327-3.549.036-.36.027-.685-.025-.988-.374-2.179-1.744-3.576-2.093-4.066-.96-1.419-1.057-3.78-1.06-3.8a.305.305 0 00-.477-.24C7.439 1.141 7.576 3.763 7.8 5.226c.051.34.152.685.326 1.121.62 1.56-.122 3.576-.128 3.594-.006.018-.012.033-.015.052-.095.497-.254.794-.431.794a.208.208 0 01-.058-.01c-.217-.045-.33-.275-.333-.475-.013-2.585-2.607-3.455-2.634-3.464a.304.304 0 00-.324.091.298.298 0 00-.043.333c.03.064.128.343.061 1.328-.058.884-.22 1.76-.48 2.6a12.667 12.667 0 00-.513 4.009c.475 5.16 7.897 6.065 12.302 3.157a4.451 4.451 0 001.168-1.082c1.625-2.242.669-5.287-.043-6.906zm-11.291 4.93c.01.167-.12.31-.287.319h-.019a.304.304 0 01-.305-.285c-.028-.442-.022-.906.012-1.409a.309.309 0 01.327-.282.306.306 0 01.284.324c-.033.48-.04.915-.012 1.334zm.15-2.684a.303.303 0 01-.303.266c-.012 0-.024 0-.04-.003a.306.306 0 01-.265-.336l.146-1.17a.308.308 0 01.342-.263.304.304 0 01.266.34l-.146 1.166zM14.588 4.143a.303.303 0 01-.256-.345c.02-.123.13-.753.43-1.07a.307.307 0 01.431-.014c.123.114.13.306.014.428-.127.135-.235.519-.27.748a.305.305 0 01-.35.253zM3.447 5.653c-.058-.225-.203-.597-.343-.718a.301.301 0 01-.028-.428.307.307 0 01.431-.028c.33.287.501.903.533 1.024a.303.303 0 01-.22.368.306.306 0 01-.373-.218z" fill="#FF6B09"/></svg>