<svg width="35" height="41" fill="none" xmlns="http://www.w3.org/2000/svg"><g clip-path="url(#clip0)" fill="#FF6B09"><path d="M.677 17.678c0 .446-.677.446-.677 0C0 8.193 7.693.5 17.178.5c9.489 0 17.177 7.693 17.177 17.178 0 .446-.673.446-.673 0 0-6.412-10.535-6.416-10.535 0 0 .446-.694.446-.694 0 0-6.395-10.551-6.395-10.551 0 0 .446-.694.446-.694 0 0-6.383-10.53-6.428-10.53 0zm10.592-2.49c.183-3.69.763-7 1.606-9.526.673-2.007 1.525-3.532 2.49-4.387C8.122 2.065 2.259 7.556.949 14.677c2.494-3.597 8.252-3.31 10.32.51zm11.132-.167c-.187-3.548-.75-6.723-1.562-9.144-2.092-6.265-5.23-6.265-7.323 0-.811 2.421-1.37 5.596-1.561 9.144 2.25-3.824 8.195-3.824 10.446 0zm11.005-.344C32.101 7.556 26.236 2.065 18.99 1.275c.97.855 1.817 2.38 2.49 4.387.844 2.527 1.424 5.836 1.606 9.526 2.08-3.84 7.855-4.068 10.32-.511zm-18.483 10.86V22.05c-.629.418-1.123 1.063-1.123 1.85 0 .766.502 1.273 1.123 1.638zm.677 1.083c-1.204-.551-2.473-1.196-2.473-2.721 0-1.574 1.196-2.36 2.473-2.949v5.67zm3.832 4.18v3.528c.637-.422 1.136-1.07 1.136-1.857 0-.775-.511-1.298-1.136-1.671zm-.673-1.087c1.209.56 2.486 1.225 2.486 2.758 0 1.577-1.204 2.364-2.486 2.948v-5.706z"/><path d="M19.432 18.08c2.774.64 5.625 2.716 5.625 5.818 0 2.657-4.49 2.56-4.49 0 0-.79-.498-1.44-1.135-1.857v4.964c2.567.84 5.633 2.344 5.633 5.466 0 3.107-2.85 5.179-5.633 5.815-.012 2.957-4.5 2.953-4.509-.004-1.582-.365-2.956-1.103-3.95-2.08-1.042-1.03-1.658-2.324-1.658-3.73 0-2.617 4.485-2.617 4.485 0 0 .782.494 1.427 1.123 1.844v-4.96c-2.547-.823-5.629-2.372-5.629-5.466 0-3.106 2.851-5.178 5.629-5.815.012-2.956 4.501-2.952 4.51.004zm-3.832.007v.54c-2.64.523-5.632 2.214-5.632 5.263 0 2.932 3.284 4.246 5.632 4.972v6.553c-1.27-.58-2.473-1.362-2.473-2.944 0-1.727-3.14-1.727-3.14 0 0 1.22.544 2.348 1.46 3.248 1.165 1.152 2.576 1.7 4.153 2.012v.543c0 2.08 3.16 2.08 3.16 0v-.54c2.647-.526 5.628-2.217 5.628-5.263 0-2.96-3.277-4.233-5.629-4.976v-6.549c1.273.58 2.486 1.363 2.486 2.952 0 1.683 3.135 1.752 3.135 0 0-3.045-2.977-4.74-5.62-5.267v-.544c0-2.08-3.16-2.08-3.16 0z"/></g><defs><clipPath id="clip0"><path fill="#fff" transform="translate(0 .5)" d="M0 0h35v40H0z"/></clipPath></defs></svg>